<svg width="20" height="20" viewBox="0 0 20 20" fill="none" xmlns="http://www.w3.org/2000/svg">
<g clip-path="url(#clip0_2298_7819)">
<path d="M5.30531e-07 6.06857L7.52 6.06857L3.75429 4.39429L7.57714 1.08604e-06L10 5.72572L12.4229 6.62415e-07L16.2457 4.39429L12.48 6.06857L20 6.06857L20 11.0857L18.1771 11.0857L18.1771 20L1.82286 20L1.82286 11.0857L9.69144e-07 11.0857L5.30531e-07 6.06857ZM7.10857 2.86857L6.25143 3.85143L7.81714 4.54857L7.10857 2.86857ZM12.8914 2.86857L12.1829 4.54857L13.7486 3.85143L12.8914 2.86857ZM18.4457 9.58286L18.4457 7.57143L10.7771 7.57143L10.7771 9.56L18.1771 9.56L18.1771 9.58286L18.4457 9.58286ZM16.6229 11.0857L10.7771 11.0857L10.7771 18.5029L16.6229 18.5029L16.6229 11.0857ZM3.37715 18.4971L9.22286 18.4971L9.22286 11.0857L3.37714 11.0857L3.37715 18.4971ZM1.55429 9.58286L1.82286 9.58286L1.82286 9.56L9.22286 9.56L9.22286 7.57143L1.55429 7.57143L1.55429 9.58286Z" fill="white"/>
</g>
<defs>
<clipPath id="clip0_2298_7819">
<rect width="20" height="20" fill="white" transform="matrix(-1 8.74228e-08 8.74228e-08 1 20 0)"/>
</clipPath>
</defs>
</svg>
